<svg width="29" height="30" viewBox="0 0 29 30" fill="none" xmlns="http://www.w3.org/2000/svg">
<g clip-path="url(#clip0_25_87)">
<path d="M5.67402 0.585358C2.78757 0.585358 0.463409 2.90952 0.463409 5.79597V23.9114C0.463409 26.7978 2.78757 29.122 5.67402 29.122H15.4924V17.9659H12.5424V13.9494H15.4924V10.5179C15.4924 7.82189 17.2354 5.34652 21.2505 5.34652C22.8762 5.34652 24.0783 5.50258 24.0783 5.50258L23.9838 9.25337C23.9838 9.25337 22.7578 9.24179 21.42 9.24179C19.972 9.24179 19.7399 9.90892 19.7399 11.0164V13.9494H24.0988L23.9089 17.966H19.7399V29.122H23.7894C26.6758 29.122 29 26.7978 29 23.9114V5.796C29 2.90955 26.6758 0.585386 23.7894 0.585386H5.67399L5.67402 0.585358Z" fill="white"/>
</g>
<defs>
<clipPath id="clip0_25_87">
<rect width="28.5366" height="28.5366" fill="white" transform="translate(0.463409 0.585358)"/>
</clipPath>
</defs>
</svg>
