<?xml version="1.0" encoding="UTF-8" standalone="no"?>
<!-- Created with Inkscape (http://www.inkscape.org/) -->

<svg
   width="34.891216mm"
   height="55.294239mm"
   viewBox="0 0 34.891216 55.294238"
   version="1.1"
   id="svg5"
   xml:space="preserve"
   sodipodi:docname="bitmap.svg"
   inkscape:export-filename="..\..\Desktop\SC_logo.svg"
   inkscape:export-xdpi="96"
   inkscape:export-ydpi="96"
   xmlns:inkscape="http://www.inkscape.org/namespaces/inkscape"
   xmlns:sodipodi="http://sodipodi.sourceforge.net/DTD/sodipodi-0.dtd"
   xmlns="http://www.w3.org/2000/svg"
   xmlns:svg="http://www.w3.org/2000/svg"><sodipodi:namedview
     id="namedview63"
     pagecolor="#505050"
     bordercolor="#ffffff"
     borderopacity="1"
     inkscape:showpageshadow="0"
     inkscape:pageopacity="0"
     inkscape:pagecheckerboard="1"
     inkscape:deskcolor="#505050"
     inkscape:document-units="mm"
     showgrid="false" /><defs
     id="defs2" /><g
     id="layer1"
     transform="translate(-83.289202,-114.12615)"><path
       style="fill:#d4cdc8;fill-opacity:1;stroke-width:0.264583"
       d="m 95.959935,169.35546 c -4.189577,-0.51453 -7.387224,-1.77865 -9.5887,-3.79067 -1.99336,-1.82182 -2.901485,-3.6004 -3.054321,-5.98194 -0.190352,-2.96609 0.590632,-4.65697 2.631959,-5.69837 0.578278,-0.29502 1.624872,-0.60432 2.325759,-0.68733 l 1.274339,-0.15092 0.18814,2.21605 c 0.424133,4.9958 1.468253,8.27735 3.296053,10.35909 0.470458,0.53582 1.630463,1.3558 2.57779,1.82217 4.163161,2.04951 9.987366,0.92596 12.912056,-2.49087 1.53012,-1.7876 2.08652,-3.58821 2.1052,-6.81287 0.0205,-3.53423 -0.46182,-5.0233 -2.26666,-6.99808 -1.67612,-1.83394 -3.81852,-3.17755 -9.09313,-5.70277 -5.853769,-2.8025 -8.891853,-4.71219 -11.046009,-6.94333 -2.904694,-3.00851 -3.908103,-5.63874 -3.900234,-10.22371 0.0085,-4.94804 1.5386,-8.28408 4.988526,-10.8763 1.710548,-1.28528 3.241713,-1.99086 5.855482,-2.69828 2.606352,-0.70541 8.691195,-0.77002 11.632355,-0.12352 2.49522,0.54847 5.4342,1.93528 6.89796,3.25492 2.03847,1.83776 2.88525,4.7033 2.00932,6.79969 -0.77582,1.85679 -3.36006,3.34888 -5.80016,3.34888 h -0.90121 l -0.15804,-2.57969 c -0.17285,-2.82136 -0.81148,-5.23336 -1.85885,-7.02056 -2.18566,-3.72955 -8.483014,-4.39977 -12.518812,-1.33235 -2.041618,1.55173 -2.998457,4.04234 -3.00359,7.81819 -0.0046,3.37783 0.721871,5.40821 2.629236,7.34837 1.832079,1.86359 3.968698,3.13446 9.723486,5.78358 8.25807,3.80147 11.00407,5.86262 12.91484,9.69392 1.04698,2.0993 1.45428,3.91471 1.44762,6.45226 -0.02,7.63942 -5.06446,13.35853 -13.09228,14.8434 -1.71202,0.31666 -7.616593,0.55667 -9.128125,0.37104 z m 1.256233,-3.12649 c -2.299456,-0.82059 -3.821877,-2.82394 -4.436586,-5.83807 -0.980559,-4.80803 1.127202,-9.49401 4.749729,-10.55962 2.672119,-0.78603 5.614629,-0.43021 6.963439,0.84204 1.311,1.2366 0.74484,3.23314 -0.91684,3.23314 -0.6027,0 -0.69696,-0.13494 -0.86172,-1.23364 -0.36591,-2.44004 -2.50893,-3.46634 -4.589443,-2.19789 -1.791824,1.09244 -2.76112,5.39812 -2.214557,9.83723 0.521351,4.23433 1.73898,5.76227 4.59351,5.76415 1.77686,0.001 2.74553,-0.64943 3.51823,-2.36298 0.38335,-0.8501 0.5589,-1.01241 0.84142,-0.77794 0.91974,0.76331 0.0961,2.39618 -1.59629,3.16473 -1.31114,0.59541 -4.550225,0.66438 -6.050892,0.12885 z"
       id="path179" /></g></svg>
